<svg id="Layer_1" data-name="Layer 1" xmlns="http://www.w3.org/2000/svg" xmlns:xlink="http://www.w3.org/1999/xlink" viewBox="0 0 626.28 54.62"><defs><style>.cls-1{fill:url(#linear-gradient);}.cls-2{fill:url(#linear-gradient-2);}.cls-3{fill:url(#linear-gradient-3);}.cls-4{fill:url(#linear-gradient-4);}.cls-5{fill:url(#linear-gradient-5);}.cls-6{fill:url(#linear-gradient-6);}.cls-7{fill:url(#linear-gradient-7);}.cls-8{fill:url(#linear-gradient-8);}.cls-9{fill:url(#linear-gradient-9);}.cls-10{fill:url(#linear-gradient-10);}.cls-11{fill:url(#linear-gradient-11);}.cls-12{fill:url(#linear-gradient-12);}</style><linearGradient id="linear-gradient" x1="45.14" y1="62.58" x2="45.14" y2="21.54" gradientUnits="userSpaceOnUse"><stop offset="0" stop-color="#780103"/><stop offset="1" stop-color="#cc0103"/></linearGradient><linearGradient id="linear-gradient-2" x1="112.21" y1="62.58" x2="112.21" y2="21.54" xlink:href="#linear-gradient"/><linearGradient id="linear-gradient-3" x1="188.34" y1="62.58" x2="188.34" y2="21.54" gradientUnits="userSpaceOnUse"><stop offset="0" stop-color="#132723"/><stop offset="1" stop-color="#272723"/></linearGradient><linearGradient id="linear-gradient-4" x1="254.76" y1="62.58" x2="254.76" y2="21.54" xlink:href="#linear-gradient-3"/><linearGradient id="linear-gradient-5" x1="321.1" y1="62.58" x2="321.1" y2="21.54" xlink:href="#linear-gradient-3"/><linearGradient id="linear-gradient-6" x1="457.72" y1="62.58" x2="457.72" y2="21.54" xlink:href="#linear-gradient-3"/><linearGradient id="linear-gradient-7" x1="498.91" y1="62.58" x2="498.91" y2="21.54" xlink:href="#linear-gradient-3"/><linearGradient id="linear-gradient-8" x1="544.77" y1="62.58" x2="544.77" y2="21.54" xlink:href="#linear-gradient-3"/><linearGradient id="linear-gradient-9" x1="612.88" y1="62.58" x2="612.88" y2="21.54" xlink:href="#linear-gradient-3"/><linearGradient id="linear-gradient-10" x1="106.34" y1="10.58" x2="106.34" y2="0" xlink:href="#linear-gradient"/><linearGradient id="linear-gradient-11" x1="390.87" y1="62.58" x2="390.87" y2="21.54" xlink:href="#linear-gradient"/><linearGradient id="linear-gradient-12" x1="375" y1="10.58" x2="375" y2="0" xlink:href="#linear-gradient"/></defs><title>logo</title><path class="cls-1" d="M60.37,47.46H15.87V28a3.82,3.82,0,0,1,.76-2.13,10.36,10.36,0,0,1,1.87-2.08A10.1,10.1,0,0,1,21,22.15a6.05,6.05,0,0,1,2.55-.61H74.41v10.8H29.91v4.32h44.5V56.24a4,4,0,0,1-.72,2.13,9.6,9.6,0,0,1-1.8,2.05A10.3,10.3,0,0,1,69.47,62a6.18,6.18,0,0,1-2.62.61h-51V51.78h44.5Z" transform="translate(-15.87 -7.96)"/><path class="cls-2" d="M95.79,38.1V51.78h32.76V32.27H81.75V21.54h60.91v41H81.75V38.1Z" transform="translate(-15.87 -7.96)"/><path class="cls-3" d="M167,21.54,188.34,40l21.31-18.5h11.09v41H206.62V41.34L188.34,57.25,170,41.34V62.58h-14v-41Z" transform="translate(-15.87 -7.96)"/><path class="cls-4" d="M281.79,21.54V32.27H227.72V21.54ZM268,36.59v10.8H227.72V36.59Zm13.68,15.12V62.58h-54V51.71Z" transform="translate(-15.87 -7.96)"/><path class="cls-5" d="M299.79,21.54,321.1,40l21.32-18.5H353.5v41H339.39V41.34L321.1,57.25,302.74,41.34V62.58h-14v-41Z" transform="translate(-15.87 -7.96)"/><path class="cls-6" d="M471.15,38.46V32.27H428.24V21.54h47.37q5.19,0,7.42,2.3a8.23,8.23,0,0,1,2.23,6V40.26a7.32,7.32,0,0,1-3.13,6.34q-3.13,2.22-8.6,2.3l13.68,13.68H469.78L456,49.19H442.28V62.58h-14V38.46Z" transform="translate(-15.87 -7.96)"/><path class="cls-7" d="M505.93,21.54v41h-14v-41Z" transform="translate(-15.87 -7.96)"/><path class="cls-8" d="M525.87,41.05h22l-3.6-5.47H529.76l9.14-14h11.66l27.58,41H562.3l-7.49-10.8h-20l-7.64,10.8H511.4Z" transform="translate(-15.87 -7.96)"/><path class="cls-9" d="M628.11,47.46h-44.5V28a3.82,3.82,0,0,1,.76-2.13,10.36,10.36,0,0,1,1.87-2.08,10.1,10.1,0,0,1,2.45-1.59,6.08,6.08,0,0,1,2.55-.61h50.91v10.8h-44.5v4.32h44.5V56.24a4,4,0,0,1-.72,2.13,9.6,9.6,0,0,1-1.8,2.05A10.3,10.3,0,0,1,637.21,62a6.18,6.18,0,0,1-2.62.61h-51V51.78h44.5Z" transform="translate(-15.87 -7.96)"/><polygon class="cls-10" points="115.77 0 109.22 10.58 96.9 10.58 101.8 0 115.77 0"/><path class="cls-11" d="M374.46,38.1V51.78h32.76V32.27h-46.8V21.54h60.91v41H360.42V38.1Z" transform="translate(-15.87 -7.96)"/><polygon class="cls-12" points="384.43 0 377.88 10.58 365.57 10.58 370.46 0 384.43 0"/></svg>