<?xml version="1.0" encoding="utf-8"?>
<!-- Generator: Adobe Illustrator 22.0.0, SVG Export Plug-In . SVG Version: 6.00 Build 0)  -->
<svg version="1.1" id="Layer_1" xmlns="http://www.w3.org/2000/svg" xmlns:xlink="http://www.w3.org/1999/xlink" x="0px" y="0px"
	 viewBox="0 0 702 86" style="enable-background:new 0 0 702 86;" xml:space="preserve">
<style type="text/css">
	.st0{fill:url(#SVGID_1_);}
	.st1{fill:url(#SVGID_2_);}
	.st2{fill:url(#SVGID_3_);}
	.st3{fill:url(#SVGID_4_);}
	.st4{fill:url(#SVGID_5_);}
	.st5{fill:url(#SVGID_6_);}
	.st6{fill:url(#SVGID_7_);}
	.st7{fill:url(#SVGID_8_);}
	.st8{fill:url(#SVGID_9_);}
	.st9{fill:url(#SVGID_10_);}
	.st10{fill:url(#SVGID_11_);}
	.st11{fill:url(#SVGID_12_);}
</style>
<g>
	<g>
		<linearGradient id="SVGID_1_" gradientUnits="userSpaceOnUse" x1="154.1736" y1="74.298" x2="154.1736" y2="31.8481">
			<stop  offset="0" style="stop-color:#960103"/>
			<stop  offset="1" style="stop-color:#CC0103"/>
		</linearGradient>
		<path class="st0" d="M180.3,65.7c-0.2,1-0.7,2-1.3,3c-0.6,1-1.4,1.9-2.3,2.8c-0.9,0.8-1.8,1.5-2.8,2.1c-1,0.5-2,0.8-2.9,0.8h-53.1
			l2.6-8.6h37.8c1,0,1.9-0.3,2.7-0.8c0.8-0.5,1.5-1.2,2.1-2c0.3-0.4,0.6-0.9,0.8-1.5c0.3-0.7,0.5-1.3,0.7-2c0.2-0.8,0.4-1.6,0.6-2.5
			h-31c-1.4,0-2.8-0.1-4.2-0.4c-1.4-0.3-2.5-0.7-3.4-1.3c-0.9-0.6-1.6-1.4-1.9-2.3c-0.3-0.9-0.1-2,0.5-3.3l3-10.1
			c0.4-1.4,1-2.6,1.8-3.5c0.9-0.9,1.9-1.7,3-2.3c1.1-0.6,2.3-1,3.6-1.2c1.3-0.2,2.5-0.4,3.7-0.4h50.1l-2.7,9.1L154.2,41
			c-1.9-0.1-3.4,0.1-4.5,0.5c-1,0.4-1.8,1.3-2.3,2.4l-1.3,4.4h30.9c1,0,2,0.1,2.9,0.3c0.9,0.2,1.7,0.5,2.4,1
			c0.7,0.5,1.2,1.1,1.5,1.8c0.3,0.7,0.3,1.6,0,2.7L180.3,65.7z"/>
		<linearGradient id="SVGID_2_" gradientUnits="userSpaceOnUse" x1="213.7188" y1="74.3054" x2="213.7188" y2="31.8481">
			<stop  offset="0" style="stop-color:#960103"/>
			<stop  offset="1" style="stop-color:#CC0103"/>
		</linearGradient>
		<path class="st1" d="M188.7,74.3c-1.1,0-2-0.1-2.7-0.4c-0.7-0.3-1.3-0.7-1.8-1.2c-0.4-0.5-0.7-1.1-0.8-1.8
			c-0.1-0.7-0.1-1.4,0.1-2.2c1.5-5.6,2.8-10.7,4-15.2c0.5-1.9,1-3.9,1.5-5.8c0.5-1.9,1-3.6,1.4-5.2c0.4-1.5,0.8-2.8,1.1-3.9
			c0.3-1.1,0.5-1.7,0.6-2c0.6-1.7,1.5-2.9,2.5-3.6c1-0.7,2-1.1,3.1-1.1h43c0.8,0,1.4,0.2,2,0.5s1,0.8,1.2,1.5
			c0.3,0.6,0.4,1.3,0.4,2.1c0,0.8-0.3,1.6-0.7,2.5l-11.4,35.9H188.7z M208.1,42c-0.9,3.4-1.8,6.4-2.5,9.2c-0.3,1.2-0.6,2.3-1,3.5
			c-0.3,1.1-0.6,2.2-0.9,3.1c-0.3,1-0.5,1.7-0.7,2.4c-0.2,0.6-0.3,1.1-0.3,1.2c-0.3,0.9-0.2,1.6,0.3,2.1c0.5,0.4,1,0.7,1.5,0.7h13.6
			l6.9-22.1H208.1z"/>
		<linearGradient id="SVGID_3_" gradientUnits="userSpaceOnUse" x1="276.8922" y1="74.298" x2="276.8922" y2="34.7591">
			<stop  offset="0" style="stop-color:#960103"/>
			<stop  offset="1" style="stop-color:#CC0103"/>
		</linearGradient>
		<path class="st2" d="M237.9,74.3l10.7-33.7l5,20.8l-3.5,12.9H237.9z M266.6,34.8c0.5,0,0.9,0.1,1.4,0.3c0.5,0.2,0.9,0.5,1.2,0.8
			c0.4,0.3,0.7,0.7,0.9,1.2c0.3,0.4,0.5,0.9,0.6,1.3l4.3,18.2l19.9-21.7h21l-12.2,39.5h-18.2l3.7-12.9l-11.7,12.9h-17.7l-9.2-39.5
			H266.6z"/>
		<linearGradient id="SVGID_4_" gradientUnits="userSpaceOnUse" x1="339.0142" y1="74.298" x2="339.0142" y2="34.7591">
			<stop  offset="0" style="stop-color:#960103"/>
			<stop  offset="1" style="stop-color:#CC0103"/>
		</linearGradient>
		<path class="st3" d="M319.1,34.8l50-0.1l-3,9.9h-31.9l-5.5,18.4c-0.1,0.3,0,0.7,0.2,1.1c0.2,0.4,0.5,0.6,0.8,0.6
			c0.2,0,0.8,0,1.8,0c1,0,2.3,0,3.8,0c1.5,0,3.2,0,5.1-0.1c1.9,0,3.8,0,5.7,0c1.9,0,3.8,0,5.6,0c1.8,0,3.4,0,4.8,0
			c1.4,0,2.5,0,3.2,0c0.8,0,1.1,0,1,0.1l-2.8,9.5h-41.7c-0.5,0-0.9-0.1-1.5-0.2c-0.5-0.1-1-0.4-1.6-0.6c-0.5-0.3-1-0.6-1.4-0.9
			c-0.4-0.3-0.8-0.7-1-1.1c-0.5-0.8-1-1.8-1.4-2.8c-0.4-1-0.5-2-0.2-2.9L319.1,34.8z M336.9,49.5h25.4l-3.3,8.8h-25.2L336.9,49.5z"
			/>
		<linearGradient id="SVGID_5_" gradientUnits="userSpaceOnUse" x1="398.4457" y1="74.298" x2="398.4457" y2="34.7591">
			<stop  offset="0" style="stop-color:#960103"/>
			<stop  offset="1" style="stop-color:#CC0103"/>
		</linearGradient>
		<path class="st4" d="M359.5,74.3l10.7-33.7l5,20.8l-3.5,12.9H359.5z M388.1,34.8c0.5,0,0.9,0.1,1.4,0.3c0.5,0.2,0.9,0.5,1.2,0.8
			c0.4,0.3,0.7,0.7,0.9,1.2c0.3,0.4,0.5,0.9,0.6,1.3l4.3,18.2l19.9-21.7h21l-12.2,39.5h-18.2l3.7-12.9L399,74.3h-17.7l-9.2-39.5
			H388.1z"/>
		<linearGradient id="SVGID_6_" gradientUnits="userSpaceOnUse" x1="458.8224" y1="74.305" x2="458.8224" y2="34.7591">
			<stop  offset="0" style="stop-color:#960103"/>
			<stop  offset="1" style="stop-color:#CC0103"/>
		</linearGradient>
		<path class="st5" d="M435.5,74.3c-1,0-1.8-0.1-2.5-0.3c-0.7-0.3-1.3-0.6-1.7-1.1c-0.4-0.5-0.7-1.1-0.8-1.7
			c-0.1-0.6-0.1-1.3,0.1-2.1c1.4-5.2,2.6-9.9,3.7-14.2c0.5-1.8,1-3.6,1.4-5.4c0.5-1.8,0.9-3.4,1.3-4.8c0.4-1.4,0.7-2.6,1-3.6
			c0.3-1,0.5-1.6,0.6-1.9c0.6-1.6,1.4-2.7,2.3-3.4c0.9-0.7,1.9-1,2.9-1h40c0.7,0,1.3,0.2,1.8,0.5c0.5,0.3,0.9,0.8,1.2,1.4
			c0.3,0.6,0.4,1.2,0.3,1.9c0,0.7-0.2,1.5-0.6,2.3l-10.6,33.4H435.5z M453.5,44.2c-0.9,3.1-1.6,6-2.3,8.5c-0.3,1.1-0.6,2.2-0.9,3.2
			c-0.3,1.1-0.6,2-0.8,2.9c-0.2,0.9-0.5,1.6-0.6,2.2c-0.2,0.6-0.3,1-0.3,1.1c-0.3,0.9-0.2,1.5,0.3,1.9c0.4,0.4,0.9,0.6,1.4,0.6H463
			l6.4-20.6H453.5z"/>
		<linearGradient id="SVGID_7_" gradientUnits="userSpaceOnUse" x1="511.3253" y1="74.298" x2="511.3253" y2="34.7591">
			<stop  offset="0" style="stop-color:#960103"/>
			<stop  offset="1" style="stop-color:#CC0103"/>
		</linearGradient>
		<path class="st6" d="M481.3,74.3L494,34.8h42.7c0.6,0,1.2,0.2,1.7,0.5c0.5,0.3,1,0.7,1.4,1.2c0.4,0.5,0.7,1.1,1,1.8
			c0.3,0.7,0.5,1.4,0.6,2.2c0.1,0.4,0.1,0.9,0,1.6c-0.1,0.7-0.2,1.4-0.4,2.2c-0.2,0.8-0.4,1.6-0.7,2.5c-0.3,0.9-0.6,1.8-0.8,2.7
			c-0.7,2.1-1.5,4.3-2.4,6.7l-2,3.2c-0.3,0.5-0.7,0.8-1.3,1.1c-0.5,0.3-1,0.6-1.4,0.9c-0.3,0.2-0.7,0.3-1.1,0.3
			c-0.4,0-0.9,0.1-1.5,0.2c-0.1,0-0.1,0.2,0,0.6c0.1,0.4,0.3,0.8,0.6,1.4c0.3,0.6,0.6,1.2,1,2c0.4,0.7,0.8,1.5,1.2,2.2
			c1,1.8,2.1,3.8,3.5,6.1h-18.2l-6.5-12.5h-3.6l2.8-9.4l11.8-0.2l2.5-7.5h-15.6l-9.3,29.6H481.3z"/>
		<linearGradient id="SVGID_8_" gradientUnits="userSpaceOnUse" x1="551.2625" y1="74.298" x2="551.2625" y2="34.7591">
			<stop  offset="0" style="stop-color:#960103"/>
			<stop  offset="1" style="stop-color:#CC0103"/>
		</linearGradient>
		<path class="st7" d="M537,74.3l11.6-39.5c3.1,0,5.9,0.1,8.4,0.1c1.1,0,2.1,0,3.1,0c1,0,1.9,0,2.7,0c0.8,0,1.4,0,1.9,0
			c0.5,0,0.7,0,0.7-0.1c-0.7,2.2-1.4,4.3-1.9,6.1c-0.6,1.9-1.2,4-1.9,6.3c-0.7,2.4-1.4,4.8-2.2,7.3c-1.8,5.8-3.8,12.4-6,19.8H537z"
			/>
		<linearGradient id="SVGID_9_" gradientUnits="userSpaceOnUse" x1="590.9142" y1="74.298" x2="590.9142" y2="34.7591">
			<stop  offset="0" style="stop-color:#960103"/>
			<stop  offset="1" style="stop-color:#CC0103"/>
		</linearGradient>
		<path class="st8" d="M559.7,74.3l34.9-39.5h14.2c0.7,0,1.4,0.2,2,0.6c0.7,0.4,1.2,0.9,1.6,1.4c0.4,0.5,0.7,1,1,1.5
			c0.3,0.5,0.6,1.1,0.8,1.6c0,0.2,0.2,0.8,0.5,1.8c0.3,1.1,0.6,2.4,1,4c0.4,1.6,0.8,3.5,1.2,5.5c0.5,2.1,0.9,4.1,1.4,6.2
			c1.1,5,2.4,10.6,3.8,16.8h-19.4l-2-7.3l-16.2-0.2c1.5-1.8,2.9-3.4,4.1-4.8c0.5-0.6,1-1.2,1.5-1.8c0.5-0.6,1-1.1,1.4-1.5
			c0.4-0.5,0.8-1,1.3-1.5h5.6l-2-8.2l-22.4,25.4H559.7z"/>
		<linearGradient id="SVGID_10_" gradientUnits="userSpaceOnUse" x1="655.8413" y1="74.298" x2="655.8413" y2="34.7591">
			<stop  offset="0" style="stop-color:#960103"/>
			<stop  offset="1" style="stop-color:#CC0103"/>
		</linearGradient>
		<path class="st9" d="M680.2,66.3c-0.2,0.9-0.6,1.8-1.2,2.8c-0.6,0.9-1.3,1.8-2.1,2.6c-0.8,0.8-1.7,1.4-2.6,1.9
			c-0.9,0.5-1.8,0.8-2.7,0.8h-49.4l2.4-8h35.2c0.9,0,1.7-0.3,2.5-0.8c0.8-0.5,1.4-1.1,1.9-1.8c0.3-0.3,0.5-0.8,0.8-1.4
			c0.2-0.6,0.5-1.3,0.7-1.9c0.2-0.7,0.4-1.5,0.6-2.3h-28.9c-1.3,0-2.6-0.1-3.9-0.4c-1.3-0.3-2.3-0.7-3.2-1.2
			c-0.9-0.6-1.4-1.3-1.8-2.1c-0.3-0.9-0.1-1.9,0.5-3.1l2.8-9.4c0.3-1.3,0.9-2.4,1.7-3.3c0.8-0.9,1.7-1.6,2.8-2.1
			c1-0.5,2.1-0.9,3.3-1.2c1.2-0.2,2.3-0.3,3.4-0.3h46.7l-2.5,8.5l-31.2,0.1c-1.8-0.1-3.2,0.1-4.2,0.5c-1,0.4-1.7,1.2-2.1,2.3
			l-1.2,4.1h28.8c0.9,0,1.8,0.1,2.7,0.3c0.9,0.2,1.6,0.5,2.2,0.9c0.6,0.4,1.1,1,1.4,1.7c0.3,0.7,0.3,1.5,0,2.5L680.2,66.3z"/>
		<linearGradient id="SVGID_11_" gradientUnits="userSpaceOnUse" x1="224.1827" y1="28.0305" x2="224.1827" y2="11.6946">
			<stop  offset="0" style="stop-color:#960103"/>
			<stop  offset="1" style="stop-color:#CC0103"/>
		</linearGradient>
		<polygon class="st10" points="211.8,28 219.3,11.7 236.6,11.7 221.5,28 		"/>
	</g>
	<linearGradient id="SVGID_12_" gradientUnits="userSpaceOnUse" x1="65.4072" y1="73.7981" x2="65.4072" y2="12.0528">
		<stop  offset="0" style="stop-color:#960103"/>
		<stop  offset="1" style="stop-color:#CC0103"/>
	</linearGradient>
	<path class="st11" d="M102.9,73.8H28.1L12.4,29.6L40.5,46c1.2,0.7,2.7,0.3,3.4-0.8l21.5-33.2l21.5,33.2c0.7,1.1,2.2,1.5,3.4,0.8
		l28.1-16.4L102.9,73.8z"/>
</g>
</svg>
